<svg width="28" height="24" viewBox="0 0 28 24" fill="none" xmlns="http://www.w3.org/2000/svg">
<g clip-path="url(#clip0_2_307)">
<path d="M1 10H27C27.2652 10 27.5196 10.1054 27.7071 10.2929C27.8946 10.4804 28 10.7348 28 11V13C28 13.2652 27.8946 13.5196 27.7071 13.7071C27.5196 13.8946 27.2652 14 27 14H1C0.734784 14 0.48043 13.8946 0.292893 13.7071C0.105357 13.5196 0 13.2652 0 13L0 11C0 10.7348 0.105357 10.4804 0.292893 10.2929C0.48043 10.1054 0.734784 10 1 10ZM27.1981 22H10.8019C10.6965 22.0001 10.5922 21.9794 10.4949 21.9391C10.3976 21.8989 10.3092 21.8398 10.2347 21.7653C10.1602 21.6908 10.1011 21.6024 10.0609 21.5051C10.0206 21.4078 9.99992 21.3035 10 21.1981V18.8019C9.99992 18.6965 10.0206 18.5922 10.0609 18.4949C10.1011 18.3976 10.1602 18.3092 10.2347 18.2347C10.3092 18.1602 10.3976 18.1011 10.4949 18.0609C10.5922 18.0206 10.6965 17.9999 10.8019 18H27.1981C27.3035 17.9999 27.4078 18.0206 27.5051 18.0609C27.6024 18.1011 27.6908 18.1602 27.7653 18.2347C27.8398 18.3092 27.8989 18.3976 27.9391 18.4949C27.9794 18.5922 28.0001 18.6965 28 18.8019V21.1981C28.0001 21.3035 27.9794 21.4078 27.9391 21.5051C27.8989 21.6024 27.8398 21.6908 27.7653 21.7653C27.6908 21.8398 27.6024 21.8989 27.5051 21.9391C27.4078 21.9794 27.3035 22.0001 27.1981 22ZM27.1981 6H10.8019C10.6965 6.00008 10.5922 5.9794 10.4949 5.93913C10.3976 5.89886 10.3092 5.8398 10.2347 5.76532C10.1602 5.69084 10.1011 5.60241 10.0609 5.50509C10.0206 5.40776 9.99992 5.30346 10 5.19813V2.80188C9.99992 2.69655 10.0206 2.59224 10.0609 2.49492C10.1011 2.39759 10.1602 2.30916 10.2347 2.23468C10.3092 2.16021 10.3976 2.10114 10.4949 2.06087C10.5922 2.02061 10.6965 1.99992 10.8019 2H27.1981C27.3035 1.99992 27.4078 2.02061 27.5051 2.06087C27.6024 2.10114 27.6908 2.16021 27.7653 2.23468C27.8398 2.30916 27.8989 2.39759 27.9391 2.49492C27.9794 2.59224 28.0001 2.69655 28 2.80188V5.19813C28.0001 5.30346 27.9794 5.40776 27.9391 5.50509C27.8989 5.60241 27.8398 5.69084 27.7653 5.76532C27.6908 5.8398 27.6024 5.89886 27.5051 5.93913C27.4078 5.9794 27.3035 6.00008 27.1981 6Z" fill="white"/>
</g>
<defs>
<clipPath id="clip0_2_307">
<rect width="28" height="24" fill="white" transform="matrix(1 0 0 -1 0 24)"/>
</clipPath>
</defs>
</svg>
