<svg width="44" height="34" viewBox="0 0 44 34" fill="none" xmlns="http://www.w3.org/2000/svg">
<path d="M0.045455 34V24.1818C0.045455 21.3939 0.590909 18.5455 1.68182 15.6364C2.77273 12.7273 4.21212 9.98485 6 7.40909C7.78788 4.83333 9.72727 2.68181 11.8182 0.954544L20.3636 6C18.6667 8.66667 17.2727 11.4545 16.1818 14.3636C15.1212 17.2727 14.5909 20.5151 14.5909 24.0909V34H0.045455ZM23 34V24.1818C23 21.3939 23.5455 18.5455 24.6364 15.6364C25.7273 12.7273 27.1667 9.98485 28.9545 7.40909C30.7424 4.83333 32.6818 2.68181 34.7727 0.954544L43.3182 6C41.6212 8.66667 40.2273 11.4545 39.1364 14.3636C38.0758 17.2727 37.5455 20.5151 37.5455 24.0909V34H23Z" fill="#FF2D5F"/>
</svg>
