<svg width="28" height="28" viewBox="0 0 28 28" fill="none" xmlns="http://www.w3.org/2000/svg">
<path d="M2.625 3.5C1.17578 3.5 0 4.67578 0 6.125C0 6.95078 0.388281 7.72734 1.05 8.225L12.95 17.15C13.5734 17.6148 14.4266 17.6148 15.05 17.15L26.95 8.225C27.6117 7.72734 28 6.95078 28 6.125C28 4.67578 26.8242 3.5 25.375 3.5H2.625V3.5ZM0 9.625V21C0 22.9305 1.56953 24.5 3.5 24.5H24.5C26.4305 24.5 28 22.9305 28 21V9.625L16.1 18.55C15.4945 19.0052 14.7575 19.2514 14 19.2514C13.2425 19.2514 12.5055 19.0052 11.9 18.55L0 9.625Z" fill="white"/>
</svg>
