<svg width="28" height="28" viewBox="0 0 28 28" fill="none" xmlns="http://www.w3.org/2000/svg">
<g clip-path="url(#clip0_201_4)">
<path d="M9.01797 1.34531C8.59687 0.328122 7.48672 -0.213284 6.42578 0.0765596L1.61328 1.38906C0.661719 1.65156 0 2.51562 0 3.5C0 17.0297 10.9703 28 24.5 28C25.4844 28 26.3484 27.3383 26.6109 26.3867L27.9234 21.5742C28.2133 20.5133 27.6719 19.4031 26.6547 18.982L21.4047 16.7945C20.5133 16.4227 19.4797 16.6797 18.8727 17.4289L16.6633 20.125C12.8133 18.3039 9.69609 15.1867 7.875 11.3367L10.5711 9.13281C11.3203 8.52031 11.5773 7.49218 11.2055 6.60078L9.01797 1.35078V1.34531Z" fill="white"/>
</g>
<defs>
<clipPath id="clip0_201_4">
<rect width="28" height="28" fill="white"/>
</clipPath>
</defs>
</svg>
